<?xml version="1.0" encoding="iso-8859-1"?>
<!-- Generator: Adobe Illustrator 19.0.0, SVG Export Plug-In . SVG Version: 6.00 Build 0)  -->
<svg xmlns="http://www.w3.org/2000/svg" xmlns:xlink="http://www.w3.org/1999/xlink" version="1.1" id="Capa_1" x="0px" y="0px" viewBox="0 0 508 508" style="enable-background:new 0 0 508 508;" xml:space="preserve" width="512px" height="512px">
<g>
	<g>
		<path d="M493.9,411.9H14.1C6.3,411.9,0,418.2,0,426v27.9C0,483.7,24.3,508,54.1,508h399.8c29.8,0,54.1-24.3,54.1-54.1V426    C508,418.2,501.7,411.9,493.9,411.9z M479.8,453.9L479.8,453.9c0,14.3-11.6,25.9-25.9,25.9H54.1c-14.3,0-25.9-11.6-25.9-25.9    v-13.8h451.6V453.9z" fill="#fcc28c"/>
	</g>
</g>
<g>
	<g>
		<path d="M507,203.6C481.3,85.6,374.9,0,254,0S26.7,85.6,1.1,203.6c-3,13.5-0.2,55.6,45.1,55.6h415.7    C503.8,259.2,509.9,217.1,507,203.6z M461.9,230.9H46.2C28,231,27.5,214.7,28.6,209.6C51.5,104.5,146.3,28.2,254,28.2    s202.5,76.3,225.4,181.3C480.5,214.7,478.3,230.9,461.9,230.9z" fill="#fcc28c"/>
	</g>
</g>
<g>
	<g>
		<path d="M459.9,287.4H48.1C21.6,287.4,0,309,0,335.5c0,26.6,21.6,48.1,48.1,48.1h411.8c26.5,0,48.1-21.6,48.1-48.1    S486.4,287.4,459.9,287.4z M459.9,355.4H48.1c-11,0-19.9-8.9-19.9-19.9c0-10.9,8.9-19.9,19.9-19.9h411.8c11,0,19.9,8.9,19.9,19.9    S470.9,355.4,459.9,355.4z" fill="#fcc28c"/>
	</g>
</g>
<g>
	<g>
		<path d="M97.1,158.6h-5.4c-7.8,0-14.1,6.3-14.1,14.1c0,7.8,6.3,14.1,14.1,14.1h5.4c7.8,0,14.1-6.3,14.1-14.1    C111.2,164.9,104.9,158.6,97.1,158.6z" fill="#fcc28c"/>
	</g>
</g>
<g>
	<g>
		<path d="M140.6,104.2h-5.4c-7.8,0-14.1,6.3-14.1,14.1s6.3,14.1,14.1,14.1h5.4c7.8,0,14.1-6.3,14.1-14.1S148.4,104.2,140.6,104.2z" fill="#fcc28c"/>
	</g>
</g>
<g>
	<g>
		<path d="M206.8,62.5h-5.4c-7.8,0-14.1,6.3-14.1,14.1s6.3,14.1,14.1,14.1h5.4c7.8,0,14.1-6.3,14.1-14.1S214.6,62.5,206.8,62.5z" fill="#fcc28c"/>
	</g>
</g>
<g>
	<g>
		<path d="M416.3,158.6h-5.4c-7.8,0-14.1,6.3-14.1,14.1c0,7.8,6.3,14.1,14.1,14.1h5.4c7.8,0,14.1-6.3,14.1-14.1    C430.4,164.9,424.1,158.6,416.3,158.6z" fill="#fcc28c"/>
	</g>
</g>
<g>
	<g>
		<path d="M372.7,104.2h-5.4c-7.8,0-14.1,6.3-14.1,14.1s6.3,14.1,14.1,14.1h5.4c7.8,0,14.1-6.3,14.1-14.1S380.5,104.2,372.7,104.2z" fill="#fcc28c"/>
	</g>
</g>
<g>
	<g>
		<path d="M306.5,62.5h-5.4c-7.8,0-14.1,6.3-14.1,14.1s6.4,14.1,14.1,14.1h5.4c7.8,0,14.1-6.3,14.1-14.1S314.3,62.5,306.5,62.5z" fill="#fcc28c"/>
	</g>
</g>
<g>
	<g>
		<path d="M170.9,158.6H165c-7.8,0-14.1,6.3-14.1,14.1c0,7.8,6.3,14.1,14.1,14.1h5.9c7.8,0,14.1-6.3,14.1-14.1    C185,164.9,178.7,158.6,170.9,158.6z" fill="#fcc28c"/>
	</g>
</g>
<g>
	<g>
		<path d="M312.5,170.1h-5.9c-7.8,0-14.1,6.3-14.1,14.1s6.3,14.1,14.1,14.1h5.9c7.8,0,14.1-6.3,14.1-14.1S320.3,170.1,312.5,170.1z" fill="#fcc28c"/>
	</g>
</g>
<g>
	<g>
		<path d="M254,113.3h-5.9c-7.8,0-14.1,6.3-14.1,14.1s6.3,14.1,14.1,14.1h5.9c7.8,0,14.1-6.3,14.1-14.1    C268.1,119.6,261.8,113.3,254,113.3z" fill="#fcc28c"/>
	</g>
</g>
</svg>
